<svg width="1200" height="700" viewBox="0 0 1200 700" fill="none" xmlns="http://www.w3.org/2000/svg">
  <rect x="40" y="40" width="1120" height="620" rx="48" stroke="#FFFFFF" stroke-opacity="0.2" stroke-width="2"/>
  <rect x="120" y="130" width="960" height="420" rx="28" stroke="#FFFFFF" stroke-opacity="0.18" stroke-width="2"/>
  <rect x="120" y="90" width="960" height="40" rx="16" stroke="#FFFFFF" stroke-opacity="0.14" stroke-width="2"/>
  <circle cx="160" cy="110" r="6" fill="#64FFDA"/>
  <circle cx="190" cy="110" r="6" fill="#FFFFFF" fill-opacity="0.4"/>
  <circle cx="220" cy="110" r="6" fill="#FFFFFF" fill-opacity="0.25"/>
  <path d="M220 230L160 300L220 370" stroke="#FFFFFF" stroke-opacity="0.7" stroke-width="6" stroke-linecap="round" stroke-linejoin="round"/>
  <path d="M420 230L480 300L420 370" stroke="#FFFFFF" stroke-opacity="0.7" stroke-width="6" stroke-linecap="round" stroke-linejoin="round"/>
  <path d="M280 210L360 390" stroke="#64FFDA" stroke-width="6" stroke-linecap="round"/>
  <path d="M560 240H960" stroke="#FFFFFF" stroke-opacity="0.35" stroke-width="4" stroke-linecap="round"/>
  <path d="M560 290H900" stroke="#FFFFFF" stroke-opacity="0.25" stroke-width="4" stroke-linecap="round"/>
  <path d="M560 340H940" stroke="#FFFFFF" stroke-opacity="0.3" stroke-width="4" stroke-linecap="round"/>
  <path d="M560 390H840" stroke="#FFFFFF" stroke-opacity="0.2" stroke-width="4" stroke-linecap="round"/>
  <rect x="120" y="500" width="960" height="110" rx="24" stroke="#FFFFFF" stroke-opacity="0.16" stroke-width="2"/>
  <path d="M180 555H520" stroke="#64FFDA" stroke-opacity="0.8" stroke-width="6" stroke-linecap="round"/>
  <path d="M560 555H980" stroke="#FFFFFF" stroke-opacity="0.25" stroke-width="4" stroke-linecap="round"/>
</svg>
